# xmcd
#
# Track frame offsets: 
#        150
#        26893
#        50736
#        72924
#        90859
#        112584
#        142269
#        157342
#        188359
#        218380
#        233038
#        244267
#
# Disc length: 3470 seconds
#
# Revision: 10
# Processed by: cddbd v1.5.2PL0 Copyright (c) Steve Scherf et al.
# Submitted via: ExactAudioCopy v1.3
#
DISCID=9e0d8c0c
DTITLE=Behemoth - Demonica
DYEAR=2006
DGENRE=Black/Death Metal
TTITLE0=From Hornedlands To Lindisfarne
TTITLE1=Thy Winter Kingdom
TTITLE2=Summoning (Of The Ancient Ones)
TTITLE3=The Dance Of The Pagan Flames
TTITLE4=Blackvisions Of The Almighty
TTITLE5=Fields Of Haar Meggido
TTITLE6=Deathcrush
TTITLE7=Moonspell Rites
TTITLE8=Blackvisions Of The Almighty
TTITLE9=Pure Evil And Hate
TTITLE10=The Oak Between The Snows
TTITLE11=Spellcraft and Heathendom
EXTD=
EXTT0=
EXTT1=
EXTT2=
EXTT3=
EXTT4=
EXTT5=
EXTT6=
EXTT7=
EXTT8=
EXTT9=
EXTT10=
EXTT11=
PLAYORDER=
